<svg xmlns="http://www.w3.org/2000/svg" viewBox="0 0 357.03 362.23"><defs><style>.cls-1{fill:#dfa937;}.cls-2{fill:#998675;}.cls-3,.cls-4,.cls-5{fill:none;stroke-linecap:round;stroke-linejoin:round;stroke-width:40px;}.cls-3{stroke:#998675;}.cls-4{stroke:#736558;}.cls-5{stroke:#4d433b;}</style></defs><title>資產 6</title><g id="圖層_2" data-name="圖層 2"><g id="圖層_3" data-name="圖層 3"><path class="cls-1" d="M156.81,320.59l-48,37.37A14.56,14.56,0,0,1,85,353.14L65.42,315.62a14.56,14.56,0,0,1,0-11L85,267.14a14.56,14.56,0,0,1,23.79-4.82l48,37.37A14.78,14.78,0,0,1,156.81,320.59Z"/><path class="cls-1" d="M200.22,320.59l48,37.37A14.56,14.56,0,0,0,272,353.14l19.58-37.52a14.56,14.56,0,0,0,0-11L272,267.14a14.56,14.56,0,0,0-23.79-4.82l-48,37.37A14.78,14.78,0,0,0,200.22,320.59Z"/><circle class="cls-1" cx="178.52" cy="309.61" r="22.15"/><path class="cls-2" d="M15.61,163.71C.28,151,47.38,13.91,47.38,13.91A17.54,17.54,0,0,1,75.18,3.6S161.4,51,161.4,69.31,30.93,176.46,15.61,163.71Z"/><path class="cls-2" d="M341.42,163.71C356.75,151,309.65,13.91,309.65,13.91A17.54,17.54,0,0,0,281.85,3.6S195.63,51,195.63,69.31,326.1,176.46,341.42,163.71Z"/></g><g id="圖層_4" data-name="圖層 4"><path class="cls-3" d="M266.76,212.08"/><path class="cls-3" d="M337,178.16"/><path class="cls-3" d="M20,178.16"/><path class="cls-3" d="M90.27,212.08"/><polyline class="cls-3" points="20 178.16 178.51 71.64 337.03 178.16"/><polyline class="cls-4" points="90.27 212.08 178.51 152.78 266.76 212.08"/><polyline class="cls-5" points="160.53 246 178.51 233.92 196.49 246"/></g></g></svg>