<svg viewBox="0 0 642 642" fill="none" xmlns="http://www.w3.org/2000/svg">
<path d="M443.387 0H198.608C88.6774 0 0 89.411 0 198.61V443.39C0 553.322 89.4103 642 198.608 642H443.387C553.318 642 641.996 552.589 641.996 443.39V198.61C642.728 88.6781 553.318 0 443.387 0ZM422.134 238.918H453.647V258.705H530.599C539.393 258.705 546.722 266.034 546.722 274.829V314.404H515.209V290.952H438.257C429.463 290.952 422.134 283.623 422.134 274.829V238.918ZM370.833 158.301C376.696 158.301 381.093 162.699 381.093 168.562C381.093 169.295 381.093 169.295 381.093 170.027L377.429 194.212C377.429 197.877 374.497 200.808 370.833 200.808C367.169 200.808 364.237 197.877 364.237 194.212L360.573 170.027C360.573 169.295 360.573 169.295 360.573 168.562C360.573 162.699 364.97 158.301 370.833 158.301ZM324.662 163.432C329.792 161.233 335.655 163.432 338.587 168.562C338.587 168.562 338.587 169.295 339.32 169.295L349.58 200.075C351.045 203.74 349.58 207.404 346.648 208.87C342.984 210.336 339.32 208.87 337.854 205.938L320.998 178.822L320.265 178.089C316.601 172.226 319.532 166.363 324.662 163.432ZM288.751 195.678C292.416 191.281 299.012 191.281 303.409 194.945L304.142 195.678L319.532 214.733C322.463 216.932 322.463 221.329 320.265 224.26C318.066 227.192 313.669 227.192 310.738 224.993L290.217 211.801L289.484 211.068C285.087 206.671 285.087 200.075 288.751 195.678ZM88.6775 321.733H232.32C238.183 321.733 242.58 317.336 244.046 311.473H101.869V279.959H244.779V268.966H88.6775V237.452H260.169C268.964 237.452 276.293 244.781 276.293 253.575V268.233V302.678V307.075C276.293 331.993 257.971 352.514 234.519 353.979H233.786H233.053H232.32H88.6775V321.733ZM88.6775 463.178C77.6844 463.178 68.8899 454.384 68.8899 443.39C68.8899 432.397 77.6844 423.603 88.6775 423.603C99.6705 423.603 108.465 432.397 108.465 443.39C108.465 454.384 99.6705 463.178 88.6775 463.178ZM295.347 408.212H256.505C265.299 442.658 250.642 460.247 238.183 470.507C227.923 479.301 212.533 484.432 196.41 484.432C191.279 484.432 186.882 483.699 181.752 482.966C155.369 477.836 133.383 459.514 118.725 431.664L117.992 430.199L146.574 415.541L147.307 417.007C154.636 430.932 167.095 447.788 188.348 451.452C200.807 453.651 212.533 450.719 217.663 445.589C227.923 436.795 227.923 426.534 222.793 407.479H70.3557V375.966H206.67C203.005 370.103 199.341 364.973 197.142 362.041H235.252C238.183 366.438 240.382 371.568 243.313 375.966H295.347V408.212V408.212ZM326.128 340.788L325.395 341.521L304.142 317.336L304.875 316.603C331.991 293.151 345.915 257.973 351.778 239.651V238.918H384.758L384.025 240.384C382.559 246.247 379.627 254.308 375.963 264.569H400.148C408.942 264.569 416.271 271.897 416.271 280.692V313.671H384.758V296.082H361.306C351.045 314.404 339.32 329.062 326.128 340.788ZM403.079 456.582L344.45 477.103L334.189 447.055L349.58 441.925V327.596H381.093V430.199L403.079 422.87V456.582ZM573.106 413.342C565.777 436.062 551.119 455.116 532.065 465.377C515.942 474.171 499.086 475.637 491.024 475.637C488.825 475.637 486.627 475.637 484.428 475.637C444.12 471.973 412.607 436.795 412.607 394.288V377.432C412.607 345.918 430.196 320.267 458.045 310.74C485.161 301.212 513.743 308.541 531.332 329.795C542.325 342.986 545.989 360.575 542.325 376.699C539.393 389.89 532.065 400.151 521.805 404.548C509.346 410.411 494.688 411.144 481.497 405.281C469.038 400.151 458.045 387.692 455.113 375.966V375.233L482.229 360.575L482.962 362.041C484.428 366.438 488.825 373.767 495.421 376.699C497.62 377.432 502.75 378.164 507.147 376.699C510.079 375.233 511.544 373.034 512.277 370.103C513.743 364.973 513.01 356.911 507.147 350.315C498.353 339.322 483.695 335.658 469.771 340.788C454.38 345.918 445.586 359.842 445.586 377.432V394.288C445.586 419.938 464.641 441.925 488.825 444.123C528.4 447.788 542.325 411.144 545.256 403.815L545.989 402.349L576.037 411.877L573.106 413.342Z" fill="#FFB300"/>
</svg>
