<svg viewBox="0 0 358 363" fill="none" xmlns="http://www.w3.org/2000/svg">
<path d="M156.81 320.59L108.81 357.96C107.111 359.665 105.016 360.921 102.712 361.618C100.408 362.315 97.968 362.429 95.6091 361.952C93.2503 361.474 91.0466 360.419 89.1952 358.882C87.3438 357.344 85.9024 355.371 85.0001 353.14L65.4201 315.62C63.9817 312.094 63.9817 308.146 65.4201 304.62L85.0001 267.14C85.9036 264.913 87.3446 262.943 89.1944 261.408C91.0442 259.874 93.2452 258.82 95.601 258.343C97.9569 257.866 100.394 257.979 102.696 258.673C104.997 259.367 107.091 260.62 108.79 262.32L156.79 299.69C159.564 302.459 161.124 306.216 161.128 310.136C161.132 314.055 159.579 317.816 156.81 320.59V320.59Z" fill="#DFA937"/>
<path d="M200.22 320.59L248.22 357.96C249.92 359.658 252.013 360.909 254.313 361.601C256.613 362.294 259.049 362.407 261.403 361.93C263.758 361.452 265.957 360.4 267.806 358.866C269.655 357.333 271.096 355.366 272 353.14L291.58 315.62C293.018 312.094 293.018 308.146 291.58 304.62L272 267.14C271.097 264.913 269.656 262.943 267.806 261.408C265.956 259.874 263.755 258.82 261.399 258.343C259.043 257.866 256.606 257.979 254.305 258.673C252.003 259.367 249.909 260.62 248.21 262.32L200.21 299.69C197.44 302.463 195.885 306.223 195.887 310.142C195.889 314.061 197.448 317.82 200.22 320.59Z" fill="#DFA937"/>
<path d="M178.52 331.76C190.753 331.76 200.67 321.843 200.67 309.61C200.67 297.377 190.753 287.46 178.52 287.46C166.287 287.46 156.37 297.377 156.37 309.61C156.37 321.843 166.287 331.76 178.52 331.76Z" fill="#DFA937"/>
<path d="M15.6102 163.71C0.280214 151 47.3902 13.91 47.3902 13.91C48.0041 11.0165 49.3398 8.32529 51.273 6.0866C53.2062 3.84791 55.6741 2.13446 58.4473 1.10562C61.2205 0.0767841 64.2088 -0.234035 67.1344 0.202075C70.0599 0.638185 72.8277 1.80706 75.1802 3.59999C75.1802 3.59999 161.4 51 161.4 69.31C161.4 87.62 30.9302 176.46 15.6102 163.71Z" fill="#998675"/>
<path d="M341.43 163.71C356.75 151 309.65 13.91 309.65 13.91C309.036 11.0165 307.7 8.32529 305.767 6.0866C303.834 3.84791 301.366 2.13446 298.593 1.10562C295.82 0.0767841 292.831 -0.234035 289.906 0.202075C286.98 0.638185 284.212 1.80706 281.86 3.59999C281.86 3.59999 195.63 51 195.63 69.31C195.63 87.62 326.1 176.46 341.43 163.71Z" fill="#998675"/>
<path d="M337 198.17C333.031 198.172 329.151 196.988 325.86 194.77L178.49 95.77L31.1401 194.77C28.9604 196.247 26.5105 197.279 23.9311 197.807C21.3516 198.335 18.6933 198.348 16.1086 197.846C13.5239 197.345 11.0638 196.337 8.86935 194.882C6.67489 193.427 4.78931 191.554 3.32077 189.368C1.85224 187.183 0.829662 184.729 0.311707 182.148C-0.206247 179.566 -0.209383 176.908 0.30248 174.325C0.814343 171.742 1.83113 169.286 3.2945 167.097C4.75788 164.908 6.63904 163.03 8.83006 161.57L167.36 55C170.658 52.7838 174.542 51.6002 178.515 51.6002C182.489 51.6002 186.372 52.7838 189.67 55L348.19 161.56C351.755 163.951 354.455 167.425 355.894 171.469C357.332 175.512 357.431 179.912 356.176 184.016C354.922 188.121 352.38 191.713 348.927 194.262C345.474 196.81 341.292 198.181 337 198.17V198.17Z" fill="#998675"/>
<path d="M90.2901 232.09C86.0027 232.093 81.8277 230.718 78.3809 228.169C74.9341 225.619 72.3979 222.029 71.1464 217.928C69.8949 213.827 69.9943 209.433 71.43 205.393C72.8656 201.353 75.5616 197.881 79.1201 195.49L167.36 136.19C170.658 133.974 174.542 132.79 178.515 132.79C182.489 132.79 186.372 133.974 189.67 136.19L277.92 195.49C282.3 198.458 285.326 203.041 286.334 208.235C287.343 213.429 286.252 218.81 283.301 223.202C280.35 227.593 275.779 230.637 270.589 231.665C265.399 232.694 260.013 231.624 255.61 228.69L178.52 176.89L101.44 228.69C98.1459 230.91 94.2628 232.094 90.2901 232.09Z" fill="#736558"/>
<path d="M160.55 266C156.262 266.003 152.087 264.628 148.641 262.079C145.194 259.529 142.658 255.939 141.406 251.838C140.155 247.737 140.254 243.343 141.69 239.303C143.125 235.263 145.821 231.791 149.38 229.4L167.38 217.32C170.678 215.104 174.561 213.92 178.535 213.92C182.508 213.92 186.392 215.104 189.69 217.32L207.69 229.4C212.07 232.368 215.096 236.951 216.104 242.145C217.113 247.339 216.022 252.72 213.071 257.112C210.12 261.503 205.549 264.547 200.359 265.575C195.169 266.604 189.783 265.534 185.38 262.6L178.51 258L171.68 262.59C168.392 264.81 164.517 265.997 160.55 266V266Z" fill="#4D433B"/>
</svg>
